<?xml version="1.0" encoding="iso-8859-1"?>
<!-- Uploaded to: SVG Repo, www.svgrepo.com, Generator: SVG Repo Mixer Tools -->
<svg height="800px" width="800px" version="1.1" id="Layer_1" xmlns="http://www.w3.org/2000/svg" xmlns:xlink="http://www.w3.org/1999/xlink" 
	 viewBox="0 0 512 512" xml:space="preserve">
<path style="fill:#333F45;" d="M375.172,0h-220.69C139.476,0,128,11.476,128,26.483v459.034C128,499.641,139.476,512,154.483,512
	h79.448h105.931h35.31c14.124,0,26.483-11.476,26.483-26.483V26.483C401.655,11.476,390.179,0,375.172,0"/>
<path style="fill:#F0C41A;" d="M128,52.966v379.586h105.931V300.138c0-19.421,10.593-37.076,26.483-45.903c0,0.883,0,0.883,0,1.766
	v61.793h52.966V256c0-0.883,0-0.883,0-1.766c15.89,8.828,26.483,26.483,26.483,45.903v132.414h61.793V52.966H128z"/>
<g>
	<path style="fill:#BC9519;" d="M339.862,341.628c-2.648,0-4.414-0.883-6.179-2.648c-3.531-3.531-2.648-8.828,0.883-12.359
		c2.648-2.648,5.297-5.297,7.945-8.828c2.648-3.531,8.828-4.414,12.359-1.766c3.531,2.648,4.414,8.828,1.766,12.359
		c-2.648,3.531-6.179,7.062-9.71,10.593C344.276,340.745,341.628,341.628,339.862,341.628"/>
	<path style="fill:#BC9519;" d="M248.055,213.628c-2.648,0-6.179-1.766-7.945-4.414c-2.648-4.414-0.883-9.71,3.531-12.359
		c8.828-5.297,18.538-8.828,28.248-10.593c4.414-0.883,9.71,2.648,10.593,7.062c0.883,4.414-2.648,9.71-7.062,10.593
		c-7.945,1.766-15.89,4.414-22.952,7.945C250.703,212.745,248.938,213.628,248.055,213.628 M326.621,213.628
		c-1.766,0-2.648,0-4.414-0.883c-7.062-4.414-15.007-7.062-22.952-7.945c-4.414-0.883-7.945-5.297-7.062-10.593
		c0.883-4.414,5.297-7.945,10.593-7.062c9.71,1.766,19.421,5.297,28.248,10.593c4.414,2.648,5.297,7.945,3.531,12.359
		C331.917,211.862,329.269,213.628,326.621,213.628 M212.745,254.234c-0.883,0-1.766,0-3.531-0.883
		c-4.414-1.766-7.062-7.062-5.297-11.476c3.531-9.71,8.828-18.538,15.89-25.6c3.531-3.531,8.828-4.414,12.359-0.883
		c3.531,3.531,4.414,8.828,0.883,12.359c-5.297,6.179-9.71,13.241-12.359,21.186C219.807,251.586,216.276,254.234,212.745,254.234
		 M361.048,254.234c-3.531,0-7.062-1.766-7.945-5.297c-2.648-7.945-7.062-15.007-12.359-21.186
		c-3.531-3.531-2.648-9.71,0.883-12.359c3.531-3.531,8.828-2.648,12.359,0.883c7.062,7.945,11.476,16.772,15.89,26.483
		c1.766,4.414-0.883,9.71-5.297,11.476C363.697,254.234,361.931,254.234,361.048,254.234 M211.862,308.083
		c-3.531,0-7.062-2.648-7.945-6.179c-2.648-8.828-4.414-18.538-4.414-28.248v-1.766c0-4.414,4.414-8.828,8.828-8.828l0,0
		c5.297,0,8.828,4.414,8.828,8.828v0.883c0,7.945,0.883,15.89,3.531,22.952c1.766,4.414-0.883,9.71-5.297,11.476
		C213.628,308.083,212.745,308.083,211.862,308.083 M361.931,308.083c-0.883,0-1.766,0-2.648-0.883
		c-4.414-1.766-7.062-6.179-5.297-11.476c2.648-7.062,3.531-15.007,3.531-22.952v-0.883c0-5.297,3.531-8.828,8.828-8.828
		c5.297,0,8.828,3.531,8.828,8.828v1.766c0,9.71-1.766,19.421-4.414,28.248C368.993,305.434,365.462,308.083,361.931,308.083"/>
	<path style="fill:#BC9519;" d="M233.931,341.628c-1.766,0-4.414-0.883-6.179-2.648c-3.531-3.531-7.062-7.062-9.71-10.593
		c-2.648-3.531-2.648-9.71,1.766-12.359c3.531-2.648,9.71-2.648,12.359,1.766c2.648,2.648,5.297,6.179,7.945,8.828
		c3.531,3.531,3.531,8.828,0.883,12.359C238.345,340.745,236.579,341.628,233.931,341.628"/>
</g>
<g>
	<path style="fill:#D4DBDF;" d="M119.172,97.103c-5.297,0-8.828-3.531-8.828-8.828v-8.828c0-5.297,3.531-8.828,8.828-8.828
		c5.297,0,8.828,3.531,8.828,8.828v8.828C128,93.572,124.469,97.103,119.172,97.103"/>
	<path style="fill:#D4DBDF;" d="M119.172,132.414c-5.297,0-8.828-3.531-8.828-8.828v-8.828c0-5.297,3.531-8.828,8.828-8.828
		c5.297,0,8.828,3.531,8.828,8.828v8.828C128,128.883,124.469,132.414,119.172,132.414"/>
	<path style="fill:#D4DBDF;" d="M119.172,167.724c-5.297,0-8.828-3.531-8.828-8.828v-8.828c0-5.297,3.531-8.828,8.828-8.828
		c5.297,0,8.828,3.531,8.828,8.828v8.828C128,164.193,124.469,167.724,119.172,167.724"/>
</g>
<g>
	<path style="fill:#4795E2;" d="M163.31,97.103c-2.648,0-4.414-0.883-6.179-2.648c-1.766-1.766-2.648-3.531-2.648-6.179
		s0.883-4.414,2.648-6.179c3.531-3.531,9.71-3.531,12.359,0c1.766,1.766,2.648,3.531,2.648,6.179s-0.883,4.414-2.648,6.179
		S165.959,97.103,163.31,97.103"/>
	<path style="fill:#4795E2;" d="M198.621,97.103c-2.648,0-4.414-0.883-6.179-2.648s-2.648-3.531-2.648-6.179
		s0.883-4.414,2.648-6.179c3.531-3.531,9.71-3.531,12.359,0c1.766,1.766,2.648,3.531,2.648,6.179s-0.883,4.414-2.648,6.179
		C203.034,96.221,201.269,97.103,198.621,97.103"/>
	<path style="fill:#4795E2;" d="M366.345,97.103h-8.828c-5.297,0-8.828-3.531-8.828-8.828s3.531-8.828,8.828-8.828h8.828
		c5.297,0,8.828,3.531,8.828,8.828S371.641,97.103,366.345,97.103"/>
	<path style="fill:#4795E2;" d="M322.207,97.103h-8.828c-5.297,0-8.828-3.531-8.828-8.828s3.531-8.828,8.828-8.828h8.828
		c5.297,0,8.828,3.531,8.828,8.828S327.503,97.103,322.207,97.103"/>
	<path style="fill:#4795E2;" d="M269.241,97.103h-26.483c-5.297,0-8.828-3.531-8.828-8.828s3.531-8.828,8.828-8.828h26.483
		c5.297,0,8.828,3.531,8.828,8.828S274.538,97.103,269.241,97.103"/>
</g>
<path style="fill:#E64C3C;" d="M313.379,317.793h-52.966V256c0-15.007,11.476-26.483,26.483-26.483s26.483,11.476,26.483,26.483
	V317.793z"/>
<path style="fill:#FDC794;" d="M339.862,512V300.138c0-19.421-10.593-37.076-26.483-45.903c0,0.883,0,0.883,0,1.766v61.793h-52.966
	V256c0-0.883,0-0.883,0-1.766c-15.89,8.828-26.483,26.483-26.483,45.903V512"/>
<g>
	<path style="fill:#F9A671;" d="M304.552,467.862h-35.31c-5.297,0-8.828-3.531-8.828-8.828s3.531-8.828,8.828-8.828h35.31
		c5.297,0,8.828,3.531,8.828,8.828S309.848,467.862,304.552,467.862"/>
	<path style="fill:#F9A671;" d="M313.379,503.172h-52.966c-5.297,0-8.828-3.531-8.828-8.828s3.531-8.828,8.828-8.828h52.966
		c5.297,0,8.828,3.531,8.828,8.828S318.676,503.172,313.379,503.172"/>
</g>
</svg>