<svg xmlns="http://www.w3.org/2000/svg" data-name="Layer 1" viewBox="0 0 64 64"><path fill="#618dcc" d="M40 44H24a2 2 0 0 1-2-2V24a2 2 0 0 1 2-2h19a2 2 0 0 1 2 2v15Z"/><path fill="#6d9fe6" d="M40 44v-5h5l-5 5z"/><path fill="#61768c" d="M45 24v2H22v-2a2.006 2.006 0 0 1 2-2h19a2.006 2.006 0 0 1 2 2Z"/><path fill="#e6e6e6" d="M30 30h2v2h-2zM35 30h2v2h-2zM40 30h2v2h-2zM30 34h2v2h-2zM25 34h2v2h-2zM35 34h2v2h-2zM30 38h2v2h-2zM25 38h2v2h-2zM35 38h2v2h-2zM40 34h2v2h-2z"/><circle cx="54" cy="10" r="9" fill="#74b3aa"/><path fill="#e6e6e6" d="M52.232 13.828a1 1 0 0 1-.707-.293L49.4 11.414 50.818 10l1.414 1.414 4.95-4.949L58.6 7.879l-5.657 5.656a1 1 0 0 1-.711.293Z"/><path fill="#97b4d9" d="m58.4 22.665-1.884.67A26.011 26.011 0 0 1 32 58c-.816 0-1.656-.049-2.5-.131V55.4l-6 3.6 6 3.6v-2.725c.843.076 1.682.125 2.5.125a28.01 28.01 0 0 0 26.4-37.335zM32 6c.808 0 1.635.046 2.5.124V8.6l6-3.6-6-3.6v2.718A29.519 29.519 0 0 0 32 4 28.01 28.01 0 0 0 5.6 41.335l1.884-.67A26.011 26.011 0 0 1 32 6z"/><circle cx="10" cy="54" r="9" fill="#ffc44d"/><path fill="#758ca6" d="M10.75 53h-1.5a1.025 1.025 0 1 1 0-2h1.5A1.147 1.147 0 0 1 12 52h2a3.1 3.1 0 0 0-3-2.977V48H9v1.023A3.1 3.1 0 0 0 6 52a3.136 3.136 0 0 0 3.25 3h1.5a1.025 1.025 0 1 1 0 2h-1.5A1.162 1.162 0 0 1 8 56H6a3.1 3.1 0 0 0 3 2.977V60h2v-1.023A3.1 3.1 0 0 0 14 56a3.136 3.136 0 0 0-3.25-3Z"/></svg>